<svg width="25" height="24" viewBox="0 0 25 24" fill="none" xmlns="http://www.w3.org/2000/svg">
<path d="M12.093 15.5C11.9604 15.5008 11.8289 15.4755 11.7061 15.4258C11.5834 15.376 11.4717 15.3027 11.3775 15.21L7.34651 11.21C7.25255 11.1168 7.17802 11.0061 7.12717 10.8843C7.07631 10.7624 7.05014 10.6319 7.05014 10.5C7.05014 10.3681 7.07631 10.2376 7.12717 10.1158C7.17802 9.99393 7.25255 9.88324 7.34651 9.79C7.44047 9.69676 7.55202 9.6228 7.67479 9.57234C7.79755 9.52188 7.92913 9.49591 8.06202 9.49591C8.1949 9.49591 8.32648 9.52188 8.44924 9.57234C8.57201 9.6228 8.68356 9.69676 8.77752 9.79L12.093 13.1L15.4186 9.92C15.5113 9.81771 15.6243 9.7355 15.7505 9.67852C15.8767 9.62153 16.0133 9.59099 16.1519 9.58881C16.2906 9.58664 16.4282 9.61286 16.5561 9.66585C16.684 9.71884 16.7996 9.79746 16.8955 9.89678C16.9914 9.99611 17.0657 10.114 17.1136 10.2431C17.1615 10.3722 17.182 10.5097 17.1739 10.647C17.1659 10.7844 17.1293 10.9186 17.0666 11.0413C17.0038 11.1639 16.9162 11.2724 16.8093 11.36L12.7783 15.22C12.594 15.3963 12.349 15.4964 12.093 15.5Z" fill="#4B5054"/>
</svg>
