<svg width="19" height="19" viewBox="0 0 19 19" fill="none" xmlns="http://www.w3.org/2000/svg">
<path fill-rule="evenodd" clip-rule="evenodd" d="M3.90222 12.8588C3.28389 13.4771 3.28389 14.4796 3.90222 15.098C4.52055 15.7163 5.52307 15.7163 6.1414 15.098L9.50015 11.7392L12.8589 15.098C13.4772 15.7163 14.4798 15.7163 15.0981 15.098C15.7164 14.4796 15.7164 13.4771 15.0981 12.8588L11.7393 9.50004L15.0981 6.14127C15.7164 5.52294 15.7164 4.52043 15.0981 3.9021C14.4798 3.28377 13.4772 3.28377 12.8589 3.9021L9.50015 7.26087L6.1414 3.90211C5.52307 3.28378 4.52056 3.28378 3.90223 3.90211C3.2839 4.52044 3.2839 5.52296 3.90223 6.14129L7.26098 9.50004L3.90222 12.8588Z" fill="#FD4F00"/>
</svg>
