<svg width="17" height="17" viewBox="0 0 17 17" fill="none" xmlns="http://www.w3.org/2000/svg">
<g opacity="0.4">
<path d="M6.70833 9.37499C7.09953 9.37499 7.41667 9.05786 7.41667 8.66666C7.41667 8.27546 7.09953 7.95833 6.70833 7.95833C6.31713 7.95833 6 8.27546 6 8.66666C6 9.05786 6.31713 9.37499 6.70833 9.37499Z" fill="#4B5054" stroke="#4B5054" stroke-width="2" stroke-linecap="round" stroke-linejoin="round"/>
<path d="M6.70833 4.41667C7.09953 4.41667 7.41667 4.09953 7.41667 3.70833C7.41667 3.31713 7.09953 3 6.70833 3C6.31713 3 6 3.31713 6 3.70833C6 4.09953 6.31713 4.41667 6.70833 4.41667Z" fill="#4B5054" stroke="#4B5054" stroke-width="2" stroke-linecap="round" stroke-linejoin="round"/>
<path d="M6.70833 14.3333C7.09953 14.3333 7.41667 14.0162 7.41667 13.625C7.41667 13.2338 7.09953 12.9167 6.70833 12.9167C6.31713 12.9167 6 13.2338 6 13.625C6 14.0162 6.31713 14.3333 6.70833 14.3333Z" fill="#4B5054" stroke="#4B5054" stroke-width="2" stroke-linecap="round" stroke-linejoin="round"/>
<path d="M10.9583 9.37499C11.3495 9.37499 11.6667 9.05786 11.6667 8.66666C11.6667 8.27546 11.3495 7.95833 10.9583 7.95833C10.5671 7.95833 10.25 8.27546 10.25 8.66666C10.25 9.05786 10.5671 9.37499 10.9583 9.37499Z" fill="#4B5054" stroke="#4B5054" stroke-width="2" stroke-linecap="round" stroke-linejoin="round"/>
<path d="M10.9583 4.41667C11.3495 4.41667 11.6667 4.09953 11.6667 3.70833C11.6667 3.31713 11.3495 3 10.9583 3C10.5671 3 10.25 3.31713 10.25 3.70833C10.25 4.09953 10.5671 4.41667 10.9583 4.41667Z" fill="#4B5054" stroke="#4B5054" stroke-width="2" stroke-linecap="round" stroke-linejoin="round"/>
<path d="M10.9583 14.3333C11.3495 14.3333 11.6667 14.0162 11.6667 13.625C11.6667 13.2338 11.3495 12.9167 10.9583 12.9167C10.5671 12.9167 10.25 13.2338 10.25 13.625C10.25 14.0162 10.5671 14.3333 10.9583 14.3333Z" fill="#4B5054" stroke="#4B5054" stroke-width="2" stroke-linecap="round" stroke-linejoin="round"/>
</g>
</svg>
