<svg width="24" height="24" viewBox="0 0 24 24" fill="none" xmlns="http://www.w3.org/2000/svg">
<g opacity="0.4">
<path d="M12.2941 13.2354C12.8464 13.2354 13.2941 12.7876 13.2941 12.2354C13.2941 11.6831 12.8464 11.2354 12.2941 11.2354C11.7418 11.2354 11.2941 11.6831 11.2941 12.2354C11.2941 12.7876 11.7418 13.2354 12.2941 13.2354Z" fill="#4B5054" stroke="#4B5054" stroke-width="2" stroke-linecap="round" stroke-linejoin="round"/>
<path d="M12.2941 6.23535C12.8464 6.23535 13.2941 5.78764 13.2941 5.23535C13.2941 4.68307 12.8464 4.23535 12.2941 4.23535C11.7418 4.23535 11.2941 4.68307 11.2941 5.23535C11.2941 5.78764 11.7418 6.23535 12.2941 6.23535Z" fill="#4B5054" stroke="#4B5054" stroke-width="2" stroke-linecap="round" stroke-linejoin="round"/>
<path d="M12.2941 20.2354C12.8464 20.2354 13.2941 19.7876 13.2941 19.2354C13.2941 18.6831 12.8464 18.2354 12.2941 18.2354C11.7418 18.2354 11.2941 18.6831 11.2941 19.2354C11.2941 19.7876 11.7418 20.2354 12.2941 20.2354Z" fill="#4B5054" stroke="#4B5054" stroke-width="2" stroke-linecap="round" stroke-linejoin="round"/>
</g>
</svg>
