<svg width="17" height="18" viewBox="0 0 17 18" fill="none" xmlns="http://www.w3.org/2000/svg">
<path d="M15.2646 14.759L12.2021 11.607C13.1109 10.4212 13.5451 8.9228 13.4159 7.41838C13.2867 5.91396 12.604 4.51719 11.5072 3.51382C10.4105 2.51045 8.98279 1.97632 7.51608 2.02069C6.04938 2.06505 4.65457 2.68457 3.61701 3.75251C2.57944 4.82044 1.97754 6.25606 1.93443 7.7657C1.89132 9.27533 2.41027 10.7449 3.38511 11.8737C4.35995 13.0025 5.717 13.7052 7.17864 13.8382C8.64028 13.9711 10.096 13.5242 11.2481 12.5889L14.3106 15.741L15.2646 14.759ZM7.70325 12.4722C6.83587 12.4722 5.98797 12.2075 5.26678 11.7115C4.54558 11.2155 3.98347 10.5105 3.65154 9.68573C3.31961 8.86093 3.23276 7.95333 3.40198 7.07773C3.5712 6.20212 3.98888 5.39782 4.60221 4.76654C5.21553 4.13526 5.99696 3.70536 6.84767 3.53119C7.69838 3.35702 8.58017 3.44641 9.38152 3.78805C10.1829 4.1297 10.8678 4.70825 11.3497 5.45056C11.8316 6.19286 12.0888 7.06558 12.0888 7.95834C12.0874 9.15505 11.6248 10.3023 10.8027 11.1485C9.98057 11.9947 8.86593 12.4708 7.70325 12.4722Z" fill="#4B5054"/>
</svg>
