<svg width="18" height="18" viewBox="0 0 18 18" fill="none" xmlns="http://www.w3.org/2000/svg">
<path d="M6.63301 8.68334C6.60801 8.68334 6.59134 8.68334 6.56634 8.68334C6.52467 8.675 6.46634 8.675 6.41634 8.68334C3.99967 8.60834 2.17467 6.70834 2.17467 4.36667C2.17467 1.98334 4.11634 0.0416718 6.49968 0.0416718C8.88301 0.0416718 10.8247 1.98334 10.8247 4.36667C10.8163 6.70834 8.98301 8.60834 6.65801 8.68334C6.64967 8.68334 6.64134 8.68334 6.63301 8.68334ZM6.49968 1.29167C4.80801 1.29167 3.42467 2.67501 3.42467 4.36667C3.42467 6.03334 4.72467 7.37501 6.38301 7.43334C6.43301 7.425 6.54134 7.425 6.64968 7.43334C8.28301 7.35834 9.56634 6.01667 9.57467 4.36667C9.57467 2.67501 8.19134 1.29167 6.49968 1.29167Z" fill="#F9F9F9"/>
<path d="M12.783 8.79167C12.758 8.79167 12.733 8.79167 12.708 8.78334C12.3663 8.81667 12.0163 8.57501 11.983 8.23334C11.9497 7.89167 12.158 7.58334 12.4997 7.54167C12.5997 7.53334 12.708 7.53334 12.7997 7.53334C14.0163 7.46667 14.9663 6.46667 14.9663 5.24167C14.9663 3.97501 13.9413 2.95001 12.6747 2.95001C12.333 2.95834 12.0497 2.67501 12.0497 2.33334C12.0497 1.99167 12.333 1.70834 12.6747 1.70834C14.6247 1.70834 16.2163 3.30001 16.2163 5.25001C16.2163 7.16667 14.7163 8.71667 12.808 8.79167C12.7997 8.79167 12.7913 8.79167 12.783 8.79167Z" fill="#F9F9F9"/>
<path d="M6.64134 17.7917C5.00801 17.7917 3.36634 17.375 2.12467 16.5417C0.966341 15.775 0.333008 14.725 0.333008 13.5833C0.333008 12.4417 0.966341 11.3833 2.12467 10.6083C4.62468 8.95001 8.67468 8.95001 11.158 10.6083C12.308 11.375 12.9497 12.425 12.9497 13.5667C12.9497 14.7083 12.3163 15.7667 11.158 16.5417C9.90801 17.375 8.27468 17.7917 6.64134 17.7917ZM2.81634 11.6583C2.01634 12.1917 1.58301 12.875 1.58301 13.5917C1.58301 14.3 2.02467 14.9833 2.81634 15.5083C4.89134 16.9 8.39134 16.9 10.4663 15.5083C11.2663 14.975 11.6997 14.2917 11.6997 13.575C11.6997 12.8667 11.258 12.1833 10.4663 11.6583C8.39134 10.275 4.89134 10.275 2.81634 11.6583Z" fill="#F9F9F9"/>
<path d="M14.283 16.2917C13.9913 16.2917 13.733 16.0917 13.6747 15.7917C13.608 15.45 13.8247 15.125 14.158 15.05C14.683 14.9417 15.1663 14.7333 15.5413 14.4417C16.0163 14.0833 16.2747 13.6333 16.2747 13.1583C16.2747 12.6833 16.0163 12.2333 15.5497 11.8833C15.183 11.6 14.7247 11.4 14.183 11.275C13.8497 11.2 13.633 10.8667 13.708 10.525C13.783 10.1917 14.1163 9.97501 14.458 10.05C15.1747 10.2083 15.7997 10.4917 16.308 10.8833C17.083 11.4667 17.5247 12.2917 17.5247 13.1583C17.5247 14.025 17.0747 14.85 16.2997 15.4417C15.783 15.8417 15.133 16.1333 14.4163 16.275C14.3663 16.2917 14.3247 16.2917 14.283 16.2917Z" fill="#F9F9F9"/>
</svg>
